<?xml version="1.0" encoding="utf-8"?>
<!-- Generator: Adobe Illustrator 19.1.0, SVG Export Plug-In . SVG Version: 6.00 Build 0)  -->
<svg version="1.1" id="Layer_1" xmlns="http://www.w3.org/2000/svg" xmlns:xlink="http://www.w3.org/1999/xlink" x="0px" y="0px"
	 viewBox="-37.4 106.3 629.6 629.6" style="enable-background:new -37.4 106.3 629.6 629.6;" xml:space="preserve">
<style type="text/css">
	.st0{fill:#B6B8BA;stroke:#B6B8BA;stroke-width:9.375000e-02;}
	.st1{stroke:#000000;stroke-width:9.375000e-02;}
	.st2{fill:#8A8C8E;stroke:#8A8C8E;stroke-width:9.375000e-02;}
	.st3{fill:#737577;stroke:#737577;stroke-width:9.375000e-02;}
	.st4{fill:#D71920;stroke:#D71920;stroke-width:9.375000e-02;}
</style>
<path class="st0" d="M219,106.3c46.7,22,93.4,43.9,140,66c22.6,62.3,45.5,124.5,68.2,186.8c0.5,1.1,0.7,2.5,1.6,3.4
	c25.9,21.7,49.9,46.3,68.2,74.9c0.9,1.6,2.1,3.2,2.2,5.2c0.4,5.2,0.6,10.4,0.9,15.7c7.8,9.1,16.6,17.5,24.2,26.9
	c8.4,10.4,15.8,22.2,18.6,35.4c3.2,14.8-0.6,31.1-10.8,42.4c-6.7,7.4-15.2,12.8-24.1,17.2c19,51.9,37.9,103.7,56.8,155.6
	c-59.8-29.5-119.5-59-179.3-88.5c1.6-2.4,3-4.9,4.4-7.4c53.2,26.2,106.3,52.6,159.6,78.7c-16.5-45-32.8-90-49.4-135
	c-3.4,1.3-6.8,2.5-10.2,3.6c-4.6,1.3-9.2,2.4-13.8,3.5c-22.1,4.3-44.2,8.6-66.3,12.9c16.1-15.1,32.3-30.1,48.3-45.3
	c-34.6-23.3-73.7-39.4-114.1-49.5c-5.1-1.5-10.3-2.6-15.6-3.5c-4.2-0.8-8.3-1.7-12.5-2.4c4,11,8,22,12.1,33.1c-3,0-6,0.1-9,0.3
	c-4.3-11.7-8.5-23.3-12.8-35c-8-1-16.1-2.4-24.2-2.5c-8.2-6.4-16.6-12.6-25.2-18.6c-6.7,18.5-13.5,37-20.2,55.5
	c-3.2,0.3-6.4,0.8-9.6,1.3c7.5-20.6,15-41.2,22.5-61.8c-3.1-2.1-6.1-4.1-9.2-6.3c-3.9-2.8-7.9-5.5-12.1-7.9
	c-27.7-17.6-55.9-34.3-84.2-50.9c-4.1-2.5-8.3-4.8-12.6-7c-3.2-1.8-6.4-3.6-9.6-5.4c-34.6,95-69.3,190-103.9,285
	c50.7-23.4,101.4-46.9,152-70.4c0.3,2.5,0.7,5,1.3,7.5c-0.3,0.5-0.8,1.7-1.1,2.2c-8.7,3.3-17,7.7-25.5,11.5
	c-47.3,21.9-94.5,43.8-141.8,65.6c37-101.9,74.3-203.8,111.4-305.7c-17-9.5-34.2-18.9-51.4-28.2c-23.7-12.9-48.5-23.9-72.8-36
	c21.9,0.5,43.8,1.1,65.7,1.6c-16.2-14.9-32.4-29.7-48.5-44.7c39.8,6.3,79.6,12.7,119.4,19c-17-16.8-34.1-33.3-51.1-50.1
	c16.8,7.8,33.5,15.5,50.3,23.3c-19.5-19.7-39.6-38.8-59.2-58.3c15.9,7.3,31.6,14.8,47.5,22c-24-19.6-48.6-38.4-72.6-58.1
	c43.3,17.5,86.6,35.2,129.9,52.8C187.4,193.2,203.2,149.8,219,106.3 M179.5,239.7c3.3,1.4,6.7,2.8,10.1,4.1
	c4.1,2.2,8.7,3.3,12.7,5.7l0.2-0.5c45.3,18.4,90.4,37.4,135.3,56.9c13.8,6.2,27.2,13.4,40.3,20.9c2.6,2.4,6,3.8,8.9,5.8
	c4.4,2.6,8.4,5.9,12.9,8.2c5.1,3.9,10.5,7.4,15.6,11.3c-21.2-57.9-42.3-115.8-63.5-173.7c-42.7-20.1-85.4-40.2-128.2-60.3
	C209,158.6,194.3,199.2,179.5,239.7 M91.4,213c27.4,22,55,43.7,82.4,65.7c-22.5-10-44.7-20.7-67.1-30.9
	c19.7,19.4,39.6,38.6,59.2,58.1c-16.9-7.4-33.5-15.5-50.3-23.1c11.7,11.6,23.6,22.9,35.2,34.6c-39.2-6.2-78.3-12.6-117.5-18.7
	c14.5,13.9,29.5,27.2,44.2,40.9c-16.5-0.5-33.1-0.4-49.6-1.5c0.2,0.2,0.7,0.6,0.9,0.8c7.2,3.4,14.3,6.9,21.5,10.4
	c36.7,19.4,73,39.4,108.8,60.2c29.9,17.4,59.6,35.3,88.4,54.5c12.2,8.3,24.6,16.5,36,25.9c1.6,1.3,3.8,0.8,5.7,1.2
	c64,6.5,127.1,27.8,180,64.9c0.5,2.8-1.6,5-3.4,6.7c-9.7,9-19.3,18.1-29,27.1c14.3-2.6,28.5-5.4,42.7-8.3
	c15.7-4.1,31.6-10.1,43.7-21.2c9.9-8.9,14.1-23.2,11.8-36.2c-2.2-13.1-9.7-24.5-18-34.5c-7.8-9.8-17.4-18.1-24.9-28
	c-1-6.1-0.1-12.4-1.5-18.4c-5.9-10.1-13.3-19.4-20.8-28.4c-40.7-48.2-94.2-84.8-152.6-108.4C242.6,273.7,166.8,243.9,91.4,213z"/>
<path class="st1" d="M179.5,239.7c14.8-40.5,29.6-81.1,44.4-121.7c42.7,20.1,85.5,40.3,128.2,60.4c21.2,57.9,42.3,115.8,63.5,173.7
	c-5.1-3.9-10.5-7.5-15.6-11.3c-18.9-51.6-37.8-103.1-56.5-154.8c-16-6.1-31.2-13.9-46.6-21.2c-22.3-10.6-44.5-21.3-66.8-32
	c-13.4,37-27.1,74-40.4,111C186.2,242.5,182.8,241.2,179.5,239.7z"/>
<path class="st2" d="M229.9,132.8c22.3,10.6,44.5,21.3,66.8,32c15.4,7.3,30.6,15.2,46.6,21.2c18.7,51.6,37.6,103.2,56.5,154.8
	c-4.5-2.4-8.5-5.6-12.9-8.2c-3-1.9-6.3-3.4-8.9-5.8c-16.5-44.1-32.8-88.2-49.1-132.3c-30.4-14.3-60.8-28.5-91.1-42.7
	c-11.8,32.4-23.7,64.7-35.4,97.1l-0.2,0.5c-4-2.4-8.6-3.5-12.7-5.7C202.9,206.8,216.5,169.8,229.9,132.8z"/>
<path class="st1" d="M237.8,151.9c30.4,14.2,60.8,28.4,91.1,42.7c16.4,44.1,32.7,88.2,49.1,132.3c-13.2-7.5-26.5-14.7-40.3-20.9
	c-44.9-19.5-90-38.5-135.3-56.9C214.1,216.6,226,184.3,237.8,151.9z"/>
<path class="st1" d="M91.4,213c75.4,30.9,151.2,60.7,225.8,93.2c58.3,23.6,111.8,60.2,152.6,108.4c7.5,9,14.8,18.3,20.8,28.4
	c1.4,6,0.5,12.3,1.5,18.4c7.6,10,17.1,18.3,24.9,28c8.3,10.1,15.8,21.5,18,34.5c2.3,13-1.9,27.3-11.8,36.2
	c-12.1,11.1-28,17.1-43.7,21.2c-14.2,2.9-28.4,5.7-42.7,8.3c9.7-9,19.3-18.1,29-27.1c1.8-1.8,3.9-4,3.4-6.7
	c-2.7-8.8-10.1-15.3-17.7-20c-27.1-17.5-57.6-29.4-88.8-37.4c-21.6-5.4-43.8-8.7-66-8.5c-4.4,0-8.8,0.8-13.2-0.2
	c-11.4-9.4-23.8-17.6-36-25.9c-28.8-19.2-58.5-37.1-88.4-54.5c-35.8-20.6-72.1-40.7-108.7-60c-7.1-3.5-14.3-7-21.5-10.4
	c-0.2-0.2-0.7-0.6-0.9-0.8c16.5,1.1,33,0.9,49.6,1.5c-14.6-13.7-29.7-27-44.2-40.9c39.2,6.1,78.3,12.5,117.5,18.7
	c-11.6-11.7-23.5-23-35.2-34.6c16.8,7.6,33.4,15.7,50.3,23.1c-19.7-19.4-39.5-38.7-59.2-58.1c22.4,10.2,44.6,20.9,67.1,30.9
	C146.4,256.7,118.8,235,91.4,213 M252.6,318.8c12,9.2,23.4,19,35.1,28.6c-22.8,2.1-45.6,2.9-68.5,3.5c-42.4-0.1-84.9,0.4-127.3,0.4
	c-2.3,0-4.7-0.1-7,0.7c-1.7-0.4-3.5-0.5-5.3-0.6c0.6,0.4,1.9,1.3,2.6,1.8c34.2,18.5,68.2,37.6,101.7,57.4
	c29.2,17.4,58.2,35.2,86,54.7c6.4,4.2,12.3,9.3,18.7,13.3c33.3-1.2,66.5,4.7,98.1,14.8c-10.6-7.1-21.8-13.4-32.7-20
	c-62.8-36.9-127.3-70.8-193.7-100.7c4,1.3,7.9,3,11.8,4.5c38.7,15.4,77.5,30.7,116.7,45c15,5.4,30,11,45.4,15.6
	c10.5,4.3,21.5,7.1,32.1,11.2c10,3.9,20.5,5.8,31.1,7.1c-5.9-4.3-10.7-9.9-14.2-16.2c-4.3-8.1-7-16.8-9-25.7c-1.5-6.3-2.3-13-6-18.4
	c-7.4-11.4-18.6-19.6-29.7-27.1c15.9,6.7,31.5,14,47.5,20.5c-6.5-10.7-16.3-19.1-26.1-26.9c-15.3-11.9-32.4-21.4-49.9-29.8
	c8,1.2,15.9,3.4,23.5,5.9c29.6,10.1,56.3,27.8,78.6,49.5c21,20.1,41.2,41.3,58.6,64.7c3,0,6,0,9,0.1c-0.3-2.4,0.3-5.2-1.2-7.3
	c-3.2-5-6.8-9.8-10.4-14.5c-36.9-47.1-86.5-83.7-141-108c-15.4-6.7-30.8-13.2-46.3-19.8c-37.9-16.3-76.2-31.6-114.4-47.3
	C194.3,278.4,224.6,297.1,252.6,318.8 M166,287.8c12.6,12.3,25.2,24.6,37.8,37c1.8,1.9,4.6,1.6,6.9,2.2c14,2.2,28,4.5,42,6.7
	c-8.2-6.1-15.7-13.6-25.4-17.5C206.9,306.7,186.5,297.1,166,287.8 M72.9,322.2c6.4,6,12.9,12,19.8,17.6c22.3,0.9,44.7,0.5,67.1,0.5
	c-7-1.9-14.1-3-21.2-4.6C116.7,331.3,94.9,326.4,72.9,322.2 M388,416.7c0.7,8.6,4.9,16.7,10.9,22.8c4.8,4.9,10.6,9,17.3,10.7
	c10.1,2.5,21.1-1.3,28.4-8.5c-0.8-1.5-1.8-2.8-2.7-4.1c-1.5,2.9-3.6,5.7-6.9,6.5c-10.9,2.9-22.7-8.7-19.7-19.6
	c0.8-3.4,3.9-5.3,6.9-6.6c-9.1-7.4-18.9-13.7-28.6-20.1C388.9,402.9,387.4,410.1,388,416.7 M358.8,458.8
	c10.1,9.9,22.5,17.1,34.4,24.6c17.1,10.5,34.6,20.5,51.2,31.8c8.3,5.6,18.4,8.1,28.3,8.7c12.5,0.5,25.6-1.3,36.7-7.6
	c3.3-2,7.7-5.6,5.9-9.9c-9.5-15.6-24.8-26.5-34.7-41.8c-7.4-0.6-14.8,0.2-22.2,0.9c-15.8,1.7-31.6,3.3-47.5,3
	C393,468.2,375.4,465,358.8,458.8z"/>
<path class="st0" d="M252.6,318.8c-28-21.7-58.3-40.4-85.8-62.8c38.2,15.6,76.5,31,114.4,47.3c15.4,6.6,30.9,13.2,46.3,19.8
	c54.5,24.4,104,60.9,141,108c3.6,4.7,7.2,9.5,10.4,14.5c1.5,2.1,0.9,4.9,1.2,7.3c-3-0.1-6-0.1-9-0.1c-17.4-23.4-37.6-44.6-58.6-64.7
	c-22.4-21.7-49-39.4-78.6-49.5c-7.7-2.6-15.5-4.7-23.5-5.9c17.5,8.4,34.5,17.8,49.9,29.8c9.7,7.8,19.5,16.1,26.1,26.9
	c-16-6.5-31.6-13.8-47.5-20.5c11.1,7.5,22.3,15.7,29.7,27.1c3.7,5.5,4.5,12.1,6,18.4c2,8.9,4.7,17.6,9,25.7
	c-11.9,0.9-23.8,0.5-35.7-0.9c-4.4-0.5-8.9-1.5-13.4-1.1c-15.3-4.5-30.3-10.2-45.4-15.6c-39.2-14.3-78-29.6-116.7-45
	c-3.9-1.5-7.8-3.2-11.8-4.5c66.4,29.8,130.9,63.8,193.7,100.7c11,6.6,22.1,12.9,32.7,20c-31.6-10.1-64.9-16-98.1-14.8
	c-6.5-4-12.3-9.1-18.7-13.3c-27.9-19.5-56.8-37.4-86-54.7c-33.5-19.8-67.5-38.9-101.7-57.4c-0.6-0.5-1.9-1.3-2.6-1.8
	c1.7,0,3.5,0.1,5.3,0.6c5.5,1.5,11.2,1.9,16.8,2.8c46.7,7,93.5,13.7,140.2,21c-7.5-8.4-15.4-16.4-22.7-24.9
	c22.8-0.6,45.7-1.4,68.5-3.5C276,337.8,264.6,328,252.6,318.8z"/>
<path class="st3" d="M166,287.8c20.5,9.3,40.9,18.9,61.3,28.4c9.7,3.8,17.2,11.3,25.4,17.5c-14-2.1-28-4.5-42-6.7
	c-2.3-0.5-5.2-0.2-6.9-2.2C191.2,312.4,178.6,300.1,166,287.8z"/>
<path class="st3" d="M72.9,322.2c22,4.2,43.8,9.1,65.7,13.5c7.1,1.6,14.2,2.7,21.2,4.6c-22.4-0.1-44.8,0.4-67.1-0.5
	C85.9,334.3,79.4,328.3,72.9,322.2z"/>
<path class="st3" d="M91.9,351.3c42.4,0,84.9-0.5,127.3-0.4c7.3,8.5,15.2,16.5,22.7,24.9c-46.7-7.2-93.5-13.9-140.2-21
	c-5.6-0.9-11.3-1.4-16.8-2.8C87.2,351.3,89.6,351.3,91.9,351.3z"/>
<path class="st1" d="M121.9,397.8c3.2,1.8,6.4,3.6,9.6,5.4c-31.6,86.2-63,172.5-94.4,258.8c44.4-20.5,88.8-41.1,133.2-61.7
	c0.6-5.8,2-11.4,3.7-16.9c-37.5,17.2-75,34.7-112.5,52c25.8-70.8,51.6-141.7,77.5-212.5c1.7-4.2,2.8-8.7,5.1-12.7
	c28.3,16.6,56.5,33.3,84.2,50.9c-10.9,30.6-22.1,61-33.2,91.6c5.9-4.6,12.2-8.6,19-11.6c8.8-24,17.4-48.1,26.2-72.1
	c3,2.1,6.1,4.2,9.2,6.3c-7.5,20.6-15,41.2-22.5,61.8c3.2-0.5,6.4-1,9.6-1.3c13.1-0.4,26.1-0.1,39.2-0.2c0,6.9,0,13.8,0,20.8
	c11.6-11.2,27-18.6,43.2-20c3-0.3,6-0.3,9-0.3c-4-11-8.1-22-12.1-33.1c4.2,0.7,8.3,1.5,12.5,2.4c3.5,10.8,7.7,21.4,11.6,32.1
	c5.8,1.2,11.4,3.2,16.8,5.5c-4.4-11.3-8-23-12.8-34.1c40.4,10.2,79.5,26.2,114.1,49.5c-16,15.2-32.2,30.2-48.3,45.3
	c22.1-4.3,44.2-8.7,66.3-12.9c9.5,26.2,19.5,52.3,29,78.5c-36.1-17.6-72-35.7-108.1-53.2c-0.5,4.7-1.6,9.4-2.9,13.9
	c45.3,22.3,90.6,44.8,136,67.1c-13.3-36.6-26.6-73.2-40.1-109.8c3.5-1,6.8-2.3,10.2-3.6c16.5,45,32.8,90,49.4,135
	C496.3,692.6,443.2,666.2,390,640c-1.4,2.5-2.8,5-4.4,7.4c-9.6,14.6-24.8,25.4-41.8,29.7c-15,3.9-31.2,2.7-45.5-3.2
	c0.9,2.1,1.8,4.2,2.6,6.3c-15.7,0.1-31.4-0.1-47.1-0.1c-10.2-0.5-20.7,0.2-30.6-2.8c-18.9-5-35.4-18.1-44.6-35.4
	c-3.6-6.8-6.6-14.2-7.3-21.9c-0.7-2.5-1.1-5-1.3-7.5C119.3,636,68.7,659.4,18,682.9C52.6,587.8,87.2,492.8,121.9,397.8 M198.6,562.7
	c-11.1,10.7-18.2,25.7-19,41.1c-0.9,12.9,2.4,26,9.3,36.9c9.1,14.8,24.7,25.4,41.8,28.5c5.3,1,10.7,1,16,1c13.1,0,26.1,0,39.2,0
	c-3.7-8.8-7.5-17.6-11.1-26.5c9.7,13.7,24.9,23.3,41.5,25.8c15.3,2.4,31.4-1.1,44.2-9.8c12.5-8.3,21.8-21.2,25.7-35.7
	c3.9-14.4,2.5-30.2-4.1-43.6c-6.4-13.3-17.6-24.1-31.1-30c-15-6.6-32.6-7-47.8-1c-12.8,4.9-23.8,14.2-30.9,26
	c-7.8,12.9-10.8,28.8-7.9,43.7c-3.1-6.1-5.4-12.6-8.2-18.9c-13.5,0-26.9,0-40.4,0c4.1,9.8,8.4,19.5,12.4,29.4
	c3.8,0.2,7.6,0.1,11.4,0c1.9,4.3,3.4,8.7,5.1,13c-5.8,0.1-11.7-0.6-16.9-3c-14.8-6.1-23.7-23.3-20.2-38.9
	c2.8-14.8,16.1-26.7,31.1-27.8c9.2-0.4,18.4,0,27.5-0.2c-0.1-9.2,0-18.3,0-27.5c-8.8,0-17.6,0-26.3,0
	C224.6,545.6,209.6,552,198.6,562.7z"/>
<path class="st4" d="M388,416.7c-0.6-6.7,0.9-13.9,5.5-18.9c9.8,6.4,19.6,12.7,28.6,20.1c-3,1.3-6,3.2-6.9,6.6
	c-3,10.9,8.8,22.6,19.7,19.6c3.3-0.8,5.4-3.7,6.9-6.5c0.9,1.3,1.9,2.6,2.7,4.1c-7.3,7.1-18.3,11-28.4,8.5
	c-6.7-1.7-12.5-5.9-17.3-10.7C392.9,433.4,388.7,425.4,388,416.7z"/>
<path class="st2" d="M131.5,403.2c4.3,2.2,8.5,4.5,12.6,7c-2.3,4-3.4,8.5-5.1,12.7c-25.8,70.8-51.7,141.7-77.5,212.5
	c37.5-17.3,75-34.8,112.5-52c-1.8,5.5-3.1,11.2-3.7,16.9c-44.4,20.6-88.8,41.2-133.2,61.7C68.5,575.8,99.8,489.4,131.5,403.2z"/>
<path class="st3" d="M334.4,438c4.5-0.4,8.9,0.6,13.4,1.1c11.8,1.5,23.8,1.8,35.7,0.9c3.5,6.3,8.3,11.9,14.2,16.2
	c-10.6-1.4-21.2-3.2-31.1-7.1C355.8,445.1,344.8,442.3,334.4,438z"/>
<path class="st2" d="M358.8,458.8c16.6,6.2,34.3,9.4,52,9.7c15.9,0.4,31.7-1.3,47.5-3c7.4-0.7,14.8-1.5,22.2-0.9
	c9.9,15.3,25.2,26.2,34.7,41.8c1.8,4.3-2.6,7.9-5.9,9.9c-11.1,6.3-24.2,8.1-36.7,7.6c-9.9-0.5-20-3-28.3-8.7
	c-16.6-11.4-34.1-21.3-51.2-31.8C381.2,475.9,368.9,468.7,358.8,458.8 M475.6,484.9c0.7,5.2,1.4,10.4,1.5,15.7c4.7,0,9.3,0.1,14,0.8
	C486,495.9,481.5,489.7,475.6,484.9z"/>
<path class="st2" d="M228.2,461.2c4.2,2.4,8.2,5.1,12.1,7.9c-8.9,24-17.5,48-26.2,72.1c-6.8,3-13.1,7-19,11.6
	C206.1,522.2,217.4,491.8,228.2,461.2z"/>
<path class="st1" d="M475.6,484.9c5.9,4.8,10.4,10.9,15.4,16.6c-4.6-0.7-9.3-0.9-14-0.8C477,495.4,476.3,490.1,475.6,484.9z"/>
<path class="st3" d="M283.6,489.9c4.3,0.9,8.8,0.1,13.2,0.2c22.3-0.2,44.5,3.1,66,8.5c31.2,8,61.6,19.9,88.8,37.4
	c7.6,4.7,15,11.2,17.7,20c-52.8-37.1-116-58.4-180-64.9C287.4,490.7,285.2,491.2,283.6,489.9z"/>
<path class="st2" d="M328.4,505.4c5.2,0.9,10.5,2,15.6,3.5c4.8,11.2,8.4,22.8,12.8,34.1c-5.4-2.4-11-4.3-16.8-5.5
	C336.1,526.8,331.9,516.2,328.4,505.4z"/>
<path class="st2" d="M198.6,562.7c11-10.7,26-17.1,41.4-17.4c8.8-0.1,17.5,0,26.3,0c0,9.2,0,18.3,0,27.5c-9.2,0.2-18.4-0.2-27.5,0.2
	c-15,1.1-28.3,13-31.1,27.8c-3.5,15.6,5.5,32.8,20.2,38.9c5.3,2.4,11.2,3.1,16.9,3c-1.7-4.4-3.3-8.8-5.1-13c-3.8,0.1-7.6,0.1-11.4,0
	c-4-9.9-8.3-19.6-12.4-29.4c13.5,0,26.9,0,40.4,0c2.8,6.3,5.2,12.7,8.2,18.9c-2.9-14.9,0-30.7,7.9-43.7c7.1-11.7,18.1-21,30.9-26
	c15.2-6,32.8-5.6,47.8,1c13.5,5.9,24.7,16.7,31.1,30c6.5,13.4,8,29.2,4.1,43.6c-3.9,14.5-13.2,27.4-25.7,35.7
	c-12.8,8.7-29,12.1-44.2,9.8c-16.6-2.4-31.9-12.1-41.5-25.8c3.6,8.8,7.5,17.6,11.1,26.5c-13,0-26.1,0-39.2,0c-5.4,0-10.8,0-16-1
	c-17.1-3-32.7-13.6-41.8-28.5c-6.9-10.9-10.2-24-9.3-36.9C180.4,588.3,187.5,573.4,198.6,562.7 M317.2,573.5
	c-7.3,1.8-14,6.1-18.7,12c-10.8,12.8-10.4,33.3,1,45.6c10.7,12.5,30.4,15.6,44.4,6.9c14.3-8.2,21.1-27.1,15.1-42.5
	C353.2,579,334.1,568.8,317.2,573.5z"/>
<path class="st1" d="M317.2,573.5c16.9-4.7,36,5.5,41.7,22c6,15.4-0.7,34.3-15.1,42.5c-14,8.7-33.7,5.6-44.4-6.9
	c-11.4-12.3-11.8-32.8-1-45.6C303.2,579.6,309.9,575.3,317.2,573.5 M323.5,583.9c-0.3,6.1-0.1,12.2-0.1,18.2c1.5,0,2.9,0,4.4,0
	c0-6,0-12.1,0-18.1C326.3,584,324.9,583.9,323.5,583.9 M302.2,605.4c0,1.5,0,3,0,4.4c6,0,12,0,18.1,0c0-1.5,0-3,0-4.5
	C314.3,605.5,308.3,605.4,302.2,605.4 M331.4,605.5c0,1.5,0,2.9,0,4.4c6,0,12,0,18,0c0-1.5,0-3,0.1-4.5
	C343.5,605.5,337.4,605.4,331.4,605.5 M323.3,613.2c0,6,0.1,11.9,0,17.9c1.5,0.1,2.9,0.2,4.4,0.3c0.1-6.1,0-12.1,0.1-18.2
	C326.3,613.2,324.8,613.2,323.3,613.2z"/>
<path class="st4" d="M323.5,583.9c1.4,0,2.8,0.1,4.2,0.1c0,6,0,12.1,0,18.1c-1.5,0-2.9,0-4.4,0C323.4,596.1,323.2,590,323.5,583.9z"
	/>
<path class="st2" d="M476,590.7c4.6-1.1,9.2-2.3,13.8-3.5c13.5,36.5,26.8,73.2,40.1,109.8c-45.4-22.3-90.6-44.8-136-67.1
	c1.3-4.5,2.4-9.2,2.9-13.9c36.2,17.5,72,35.6,108.1,53.2C495.5,643,485.6,616.9,476,590.7z"/>
<path class="st4" d="M302.2,605.4c6,0,12.1,0,18.1,0c0,1.5,0,3,0,4.5c-6,0-12,0-18.1,0C302.2,608.4,302.2,606.9,302.2,605.4z"/>
<path class="st4" d="M331.4,605.5c6,0,12.1,0,18.1,0c0,1.5-0.1,3-0.1,4.5c-6,0-12,0-18,0C331.4,608.4,331.4,606.9,331.4,605.5z"/>
<path class="st4" d="M323.3,613.2c1.5,0,2.9,0,4.4,0c-0.1,6.1,0,12.1-0.1,18.2c-1.5-0.1-2.9-0.2-4.4-0.3
	C323.4,625.2,323.4,619.2,323.3,613.2z"/>
</svg>
