<?xml version="1.0" encoding="utf-8"?>
<!-- Generator: Adobe Illustrator 22.0.1, SVG Export Plug-In . SVG Version: 6.00 Build 0)  -->
<svg version="1.1" id="Layer_1" xmlns="http://www.w3.org/2000/svg" xmlns:xlink="http://www.w3.org/1999/xlink" x="0px" y="0px"
	 viewBox="0 0 110.6 110.6" style="enable-background:new 0 0 110.6 110.6;" xml:space="preserve">
<style type="text/css">
	.st0{fill:#1F2121;stroke:#1F2121;stroke-width:9.375000e-02;}
	.st1{fill:#9A0A0A;stroke:#9A0A0A;stroke-width:9.375000e-02;}
	.st2{fill:#D4D4D4;stroke:#D4D4D4;stroke-width:9.375000e-02;}
</style>
<path class="st0" d="M107.9,35c-3.8-6.8-7.6-13.6-11.6-20.3c-1.8-3.3-5-5.5-8.4-7H22.8c-3.4,1.6-6.6,3.8-8.5,7.1
	c-3.9,6.7-7.7,13.5-11.5,20.3c-2.7,4.4-1.1,9.9,1.3,14c7.7,13.5,15.5,27.1,23.2,40.6c1.6,2.8,3,5.6,5,8.1c1.8,2.5,4.8,3.7,7.5,4.9
	h31.1c3.5-1.4,7-3.3,8.8-6.7c9-15.6,17.9-31.3,26.9-47C109,44.8,110.6,39.4,107.9,35z"/>
<path class="st0" d="M22.7,7.7h65.1c3.4,1.5,6.6,3.7,8.4,7c4,6.7,7.8,13.5,11.6,20.3c2.7,4.4,1.1,9.8-1.3,14
	c-9,15.7-17.9,31.4-26.9,47c-1.8,3.4-5.3,5.3-8.8,6.7H39.7c-2.7-1.2-5.7-2.4-7.5-4.9c-2-2.5-3.4-5.3-5-8.1
	C19.5,76.2,11.7,62.6,4,49.1c-2.4-4.1-4-9.6-1.3-14c3.8-6.8,7.6-13.6,11.5-20.3C16.1,11.5,19.3,9.3,22.7,7.7 M19.8,23.1
	c2,3.9,6.5,11.6,12.1,19.6c7.6-15.9,0,0,7.6-15.9c10.9,0.2,21.8,0,32.7,0.3c-7.9,14.8-16.6,29.1-24.7,43.7
	c8.3,13.5,8.1,13.5,8.3,13.5C67.3,63.6,79.3,43,91,22.4c1.9-3.9-1.4-9.3-5.8-9.1c-19.7-0.1-39.3,0-59,0
	C21.3,12.6,17.1,18.9,19.8,23.1 M7.5,39c-1.3,2.4,0.4,4.9,1.5,7.1c8.8,15.2,17.5,30.4,26.2,45.7c1.4,2.2,3.1,4.9,6.1,4.8
	c4.1,0.1,8.1-0.1,12.2,0c-4-8.6-9.7-16.5-13.9-25.1c0.1-3.2,3-5.4,4.3-8.1c5.3-9.9,11.4-19.3,16.3-29.3c-4.3,0-8.6-0.2-12.8,0
	c-2.3,0-3.9,2-5,3.7c-3.6,6.1-6.7,12.5-10.4,18.6c-0.3,0-0.9,0-1.2-0.1c-5.3-9.4-11.4-18.7-16.6-28.2 M57.7,96.9
	c3.9,0,7.7,0.3,11.6,0c2.5-0.2,4.7-2,5.8-4.2c8-14,16.1-27.9,24-42c1.6-2.9,3.7-5.6,4.5-8.9c-6.6-13.6,0,0-6.6-13.6
	C93.7,32.2,57.9,96.2,57.7,96.9z"/>
<path class="st1" d="M19.8,23.1c-2.6-4.3,1.5-10.6,6.5-9.8c19.7,0,39.3,0,59,0c4.4-0.3,7.7,5.2,5.8,9.1C79.3,43,67.4,63.6,55.8,84.3
	c-0.3,0,0,0-8.3-13.5c8.1-14.6,16.8-28.9,24.7-43.7c-10.9-0.2-21.8,0-32.7-0.3c-7.6,15.9,0,0-7.6,15.9
	C26.3,34.7,21.8,27.1,19.8,23.1z"/>
<path class="st2" d="M14.2,28.1c5.2,9.5,11.4,18.8,16.6,28.2c0.3,0,0.9,0,1.2,0.1c3.7-6,6.9-12.4,10.4-18.6c1.2-1.7,2.8-3.6,5-3.7
	c4.3-0.2,8.6,0,12.8,0c-4.9,10-11,19.4-16.3,29.2c-1.3,2.8-4.2,5-4.3,8.1c4.2,8.6,9.8,16.5,13.9,25.1c-4.1-0.1-8.2,0.1-12.2,0
	c-2.9,0.1-4.7-2.6-6.1-4.8C26.5,76.5,17.8,61.3,9,46.1c-1.1-2.2-2.8-4.7-1.5-7.1C9.2,35.2,13.9,28.1,14.2,28.1z"/>
<path class="st2" d="M96.9,28.1c6.6,13.6,0,0,6.6,13.6c-0.7,3.3-2.9,6-4.5,8.9c-7.9,14.1-16,28-24,42c-1.2,2.2-3.3,4-5.8,4.2
	c-3.8,0.3-7.7,0-11.6,0C57.9,96.2,93.7,32.2,96.9,28.1z"/>
</svg>
